<mxfile host="app.diagrams.net" modified="2024-03-17T13:25:13.953Z" agent="Mozilla/5.0 (Windows NT 10.0; Win64; x64) AppleWebKit/537.36 (KHTML, like Gecko) Chrome/122.0.0.0 Safari/537.36" etag="zyqy1vrh8Bz_jQQ06IO4" version="24.0.7" type="device">
  <diagram id="prtHgNgQTEPvFCAcTncT" name="Page-1">
    <mxGraphModel dx="6492" dy="876" grid="1" gridSize="10" guides="1" tooltips="1" connect="1" arrows="1" fold="1" page="1" pageScale="1" pageWidth="827" pageHeight="1169" math="0" shadow="0">
      <root>
        <mxCell id="0" />
        <mxCell id="1" parent="0" />
        <mxCell id="vkENzP75K5TKaXmKiikp-88" value="" style="rounded=0;whiteSpace=wrap;html=1;" parent="1" vertex="1">
          <mxGeometry x="-617" y="1610" width="10" height="800" as="geometry" />
        </mxCell>
        <mxCell id="vkENzP75K5TKaXmKiikp-89" value="" style="rounded=0;whiteSpace=wrap;html=1;" parent="1" vertex="1">
          <mxGeometry x="-377" y="1610" width="10" height="800" as="geometry" />
        </mxCell>
        <mxCell id="vkENzP75K5TKaXmKiikp-90" value="" style="rounded=0;whiteSpace=wrap;html=1;" parent="1" vertex="1">
          <mxGeometry x="-137" y="1610" width="10" height="800" as="geometry" />
        </mxCell>
        <mxCell id="vkENzP75K5TKaXmKiikp-91" value="Пользователь" style="shape=umlActor;verticalLabelPosition=bottom;verticalAlign=top;html=1;outlineConnect=0;" parent="1" vertex="1">
          <mxGeometry x="-627" y="1530" width="30" height="60" as="geometry" />
        </mxCell>
        <mxCell id="vkENzP75K5TKaXmKiikp-92" value="" style="group" parent="1" vertex="1" connectable="0">
          <mxGeometry x="-424.5" y="1530" width="105" height="40" as="geometry" />
        </mxCell>
        <mxCell id="vkENzP75K5TKaXmKiikp-93" value="" style="rounded=0;whiteSpace=wrap;html=1;" parent="vkENzP75K5TKaXmKiikp-92" vertex="1">
          <mxGeometry width="105" height="40" as="geometry" />
        </mxCell>
        <mxCell id="vkENzP75K5TKaXmKiikp-94" value=":Устройство" style="text;html=1;align=center;verticalAlign=middle;resizable=0;points=[];autosize=1;strokeColor=none;fillColor=none;" parent="vkENzP75K5TKaXmKiikp-92" vertex="1">
          <mxGeometry x="7.5" y="5" width="90" height="30" as="geometry" />
        </mxCell>
        <mxCell id="vkENzP75K5TKaXmKiikp-95" value="" style="group" parent="1" vertex="1" connectable="0">
          <mxGeometry x="-184.5" y="1530" width="105" height="40" as="geometry" />
        </mxCell>
        <mxCell id="vkENzP75K5TKaXmKiikp-96" value="" style="rounded=0;whiteSpace=wrap;html=1;" parent="vkENzP75K5TKaXmKiikp-95" vertex="1">
          <mxGeometry width="105" height="40" as="geometry" />
        </mxCell>
        <mxCell id="vkENzP75K5TKaXmKiikp-97" value=":Сервер" style="text;html=1;align=center;verticalAlign=middle;resizable=0;points=[];autosize=1;strokeColor=none;fillColor=none;" parent="vkENzP75K5TKaXmKiikp-95" vertex="1">
          <mxGeometry x="17.5" y="5" width="70" height="30" as="geometry" />
        </mxCell>
        <mxCell id="vkENzP75K5TKaXmKiikp-98" value="" style="endArrow=none;dashed=1;html=1;rounded=0;entryX=0.5;entryY=1;entryDx=0;entryDy=0;exitX=0.5;exitY=0;exitDx=0;exitDy=0;" parent="1" source="vkENzP75K5TKaXmKiikp-89" target="vkENzP75K5TKaXmKiikp-93" edge="1">
          <mxGeometry width="50" height="50" relative="1" as="geometry">
            <mxPoint x="-307" y="1660" as="sourcePoint" />
            <mxPoint x="-257" y="1610" as="targetPoint" />
          </mxGeometry>
        </mxCell>
        <mxCell id="vkENzP75K5TKaXmKiikp-99" value="" style="endArrow=none;dashed=1;html=1;rounded=0;entryX=0.5;entryY=1;entryDx=0;entryDy=0;exitX=0.5;exitY=0;exitDx=0;exitDy=0;" parent="1" source="vkENzP75K5TKaXmKiikp-90" target="vkENzP75K5TKaXmKiikp-96" edge="1">
          <mxGeometry width="50" height="50" relative="1" as="geometry">
            <mxPoint x="-362" y="1620" as="sourcePoint" />
            <mxPoint x="-362" y="1580" as="targetPoint" />
          </mxGeometry>
        </mxCell>
        <mxCell id="vkENzP75K5TKaXmKiikp-100" value="" style="group" parent="1" vertex="1" connectable="0">
          <mxGeometry x="-562" y="1630" width="140" height="30" as="geometry" />
        </mxCell>
        <mxCell id="vkENzP75K5TKaXmKiikp-101" value="" style="endArrow=classic;html=1;rounded=0;exitX=1.029;exitY=0.051;exitDx=0;exitDy=0;exitPerimeter=0;entryX=-0.19;entryY=0.052;entryDx=0;entryDy=0;entryPerimeter=0;" parent="vkENzP75K5TKaXmKiikp-100" source="vkENzP75K5TKaXmKiikp-88" target="vkENzP75K5TKaXmKiikp-89" edge="1">
          <mxGeometry width="50" height="50" relative="1" as="geometry">
            <mxPoint x="-5" y="80" as="sourcePoint" />
            <mxPoint x="45" y="30" as="targetPoint" />
          </mxGeometry>
        </mxCell>
        <mxCell id="vkENzP75K5TKaXmKiikp-102" value="Открыть приложение" style="text;html=1;align=center;verticalAlign=middle;resizable=0;points=[];autosize=1;strokeColor=none;fillColor=none;" parent="vkENzP75K5TKaXmKiikp-100" vertex="1">
          <mxGeometry width="140" height="30" as="geometry" />
        </mxCell>
        <mxCell id="vkENzP75K5TKaXmKiikp-103" value="" style="endArrow=none;html=1;rounded=0;" parent="1" edge="1">
          <mxGeometry width="50" height="50" relative="1" as="geometry">
            <mxPoint x="-747" y="1720" as="sourcePoint" />
            <mxPoint x="-27" y="1720" as="targetPoint" />
          </mxGeometry>
        </mxCell>
        <mxCell id="vkENzP75K5TKaXmKiikp-104" value="&lt;b&gt;Редактирование&lt;/b&gt;&lt;div&gt;&lt;b&gt;профиля&lt;/b&gt;&lt;/div&gt;&lt;div&gt;&lt;b&gt;пользователя&lt;/b&gt;&lt;/div&gt;" style="text;html=1;align=center;verticalAlign=middle;resizable=0;points=[];autosize=1;strokeColor=none;fillColor=none;" parent="1" vertex="1">
          <mxGeometry x="-747" y="1725" width="120" height="60" as="geometry" />
        </mxCell>
        <mxCell id="vkENzP75K5TKaXmKiikp-105" value="" style="group" parent="1" vertex="1" connectable="0">
          <mxGeometry x="-562" y="1735" width="165" height="40" as="geometry" />
        </mxCell>
        <mxCell id="vkENzP75K5TKaXmKiikp-106" value="" style="endArrow=classic;html=1;rounded=0;exitX=1.267;exitY=0.202;exitDx=0;exitDy=0;exitPerimeter=0;entryX=-0.267;entryY=0.203;entryDx=0;entryDy=0;entryPerimeter=0;" parent="vkENzP75K5TKaXmKiikp-105" source="vkENzP75K5TKaXmKiikp-88" target="vkENzP75K5TKaXmKiikp-89" edge="1">
          <mxGeometry width="50" height="50" relative="1" as="geometry">
            <mxPoint x="55" y="105" as="sourcePoint" />
            <mxPoint x="105" y="55" as="targetPoint" />
          </mxGeometry>
        </mxCell>
        <mxCell id="vkENzP75K5TKaXmKiikp-107" value="Открыть страницу&lt;div&gt;профиля пользователя&lt;/div&gt;" style="text;html=1;align=center;verticalAlign=middle;resizable=0;points=[];autosize=1;strokeColor=none;fillColor=none;" parent="vkENzP75K5TKaXmKiikp-105" vertex="1">
          <mxGeometry x="-10" width="150" height="40" as="geometry" />
        </mxCell>
        <mxCell id="vkENzP75K5TKaXmKiikp-108" value="" style="group" parent="1" vertex="1" connectable="0">
          <mxGeometry x="-562" y="1656" width="150" height="40" as="geometry" />
        </mxCell>
        <mxCell id="vkENzP75K5TKaXmKiikp-109" value="" style="endArrow=classic;html=1;rounded=0;entryX=1.105;entryY=0.101;entryDx=0;entryDy=0;entryPerimeter=0;exitX=-0.229;exitY=0.102;exitDx=0;exitDy=0;exitPerimeter=0;dashed=1;" parent="vkENzP75K5TKaXmKiikp-108" source="vkENzP75K5TKaXmKiikp-89" target="vkENzP75K5TKaXmKiikp-88" edge="1">
          <mxGeometry width="50" height="50" relative="1" as="geometry">
            <mxPoint x="90" y="74" as="sourcePoint" />
            <mxPoint x="140" y="24" as="targetPoint" />
          </mxGeometry>
        </mxCell>
        <mxCell id="vkENzP75K5TKaXmKiikp-110" value="Отобразить главную&lt;div&gt;страницу приложения&lt;/div&gt;" style="text;html=1;align=center;verticalAlign=middle;resizable=0;points=[];autosize=1;strokeColor=none;fillColor=none;" parent="vkENzP75K5TKaXmKiikp-108" vertex="1">
          <mxGeometry width="150" height="40" as="geometry" />
        </mxCell>
        <mxCell id="vkENzP75K5TKaXmKiikp-111" value="" style="group" parent="1" vertex="1" connectable="0">
          <mxGeometry x="-572" y="1861" width="185" height="40" as="geometry" />
        </mxCell>
        <mxCell id="vkENzP75K5TKaXmKiikp-112" value="" style="group" parent="vkENzP75K5TKaXmKiikp-111" vertex="1" connectable="0">
          <mxGeometry width="185" height="40" as="geometry" />
        </mxCell>
        <mxCell id="vkENzP75K5TKaXmKiikp-113" value="Отобразить страницу профиля&lt;div&gt;пользователя с текущими данными&lt;/div&gt;" style="text;html=1;align=center;verticalAlign=middle;resizable=0;points=[];autosize=1;strokeColor=none;fillColor=none;" parent="vkENzP75K5TKaXmKiikp-112" vertex="1">
          <mxGeometry x="-35" width="220" height="40" as="geometry" />
        </mxCell>
        <mxCell id="vkENzP75K5TKaXmKiikp-114" value="" style="endArrow=classic;html=1;rounded=0;entryX=1;entryY=0.25;entryDx=0;entryDy=0;exitX=0;exitY=0.25;exitDx=0;exitDy=0;dashed=1;" parent="1" edge="1">
          <mxGeometry width="50" height="50" relative="1" as="geometry">
            <mxPoint x="-377" y="1901.0000000000007" as="sourcePoint" />
            <mxPoint x="-606.9999999999999" y="1901" as="targetPoint" />
          </mxGeometry>
        </mxCell>
        <mxCell id="vkENzP75K5TKaXmKiikp-115" value="" style="endArrow=classic;html=1;rounded=0;exitX=1;exitY=0.5;exitDx=0;exitDy=0;entryX=0;entryY=0.5;entryDx=0;entryDy=0;" parent="1" edge="1">
          <mxGeometry width="50" height="50" relative="1" as="geometry">
            <mxPoint x="-607.0000000000002" y="1980" as="sourcePoint" />
            <mxPoint x="-376.9999999999998" y="1980" as="targetPoint" />
          </mxGeometry>
        </mxCell>
        <mxCell id="vkENzP75K5TKaXmKiikp-116" value="Ввести новые данные" style="text;html=1;align=center;verticalAlign=middle;resizable=0;points=[];autosize=1;strokeColor=none;fillColor=none;" parent="1" vertex="1">
          <mxGeometry x="-570.5" y="1950" width="150" height="30" as="geometry" />
        </mxCell>
        <mxCell id="vkENzP75K5TKaXmKiikp-117" value="" style="endArrow=classic;html=1;rounded=0;exitX=1.167;exitY=0.549;exitDx=0;exitDy=0;exitPerimeter=0;entryX=-0.367;entryY=0.549;entryDx=0;entryDy=0;entryPerimeter=0;" parent="1" source="vkENzP75K5TKaXmKiikp-89" target="vkENzP75K5TKaXmKiikp-90" edge="1">
          <mxGeometry width="50" height="50" relative="1" as="geometry">
            <mxPoint x="-287" y="2140" as="sourcePoint" />
            <mxPoint x="-237" y="2090" as="targetPoint" />
          </mxGeometry>
        </mxCell>
        <mxCell id="vkENzP75K5TKaXmKiikp-118" value="Передать данные" style="text;html=1;align=center;verticalAlign=middle;resizable=0;points=[];autosize=1;strokeColor=none;fillColor=none;" parent="1" vertex="1">
          <mxGeometry x="-322" y="2020" width="120" height="30" as="geometry" />
        </mxCell>
        <mxCell id="vkENzP75K5TKaXmKiikp-119" value="" style="rounded=0;whiteSpace=wrap;html=1;" parent="1" vertex="1">
          <mxGeometry x="-132" y="2080" width="10" height="40" as="geometry" />
        </mxCell>
        <mxCell id="vkENzP75K5TKaXmKiikp-120" value="" style="edgeStyle=segmentEdgeStyle;endArrow=classic;html=1;curved=0;rounded=0;endSize=8;startSize=8;sourcePerimeterSpacing=0;targetPerimeterSpacing=0;entryX=1;entryY=0.5;entryDx=0;entryDy=0;exitX=1.033;exitY=0.577;exitDx=0;exitDy=0;exitPerimeter=0;" parent="1" source="vkENzP75K5TKaXmKiikp-90" edge="1">
          <mxGeometry width="100" relative="1" as="geometry">
            <mxPoint x="-122" y="2070" as="sourcePoint" />
            <mxPoint x="-120" y="2111" as="targetPoint" />
            <Array as="points">
              <mxPoint x="-127" y="2070" />
              <mxPoint x="-85" y="2070" />
              <mxPoint x="-85" y="2111" />
            </Array>
          </mxGeometry>
        </mxCell>
        <mxCell id="vkENzP75K5TKaXmKiikp-121" value="Проверить&amp;nbsp;&lt;div&gt;введённые данные&lt;/div&gt;" style="text;html=1;align=center;verticalAlign=middle;resizable=0;points=[];autosize=1;strokeColor=none;fillColor=none;" parent="1" vertex="1">
          <mxGeometry x="-87" y="2070" width="130" height="40" as="geometry" />
        </mxCell>
        <mxCell id="vkENzP75K5TKaXmKiikp-122" value="" style="endArrow=classic;html=1;rounded=0;exitX=-0.367;exitY=0.668;exitDx=0;exitDy=0;exitPerimeter=0;entryX=1.167;entryY=0.669;entryDx=0;entryDy=0;entryPerimeter=0;dashed=1;" parent="1" source="vkENzP75K5TKaXmKiikp-90" target="vkENzP75K5TKaXmKiikp-89" edge="1">
          <mxGeometry width="50" height="50" relative="1" as="geometry">
            <mxPoint x="-227" y="2210" as="sourcePoint" />
            <mxPoint x="-177" y="2160" as="targetPoint" />
          </mxGeometry>
        </mxCell>
        <mxCell id="vkENzP75K5TKaXmKiikp-123" value="Вернуть результат проверки данных" style="text;html=1;align=center;verticalAlign=middle;resizable=0;points=[];autosize=1;strokeColor=none;fillColor=none;" parent="1" vertex="1">
          <mxGeometry x="-374.5" y="2110" width="230" height="30" as="geometry" />
        </mxCell>
        <mxCell id="vkENzP75K5TKaXmKiikp-124" value="" style="rounded=0;whiteSpace=wrap;html=1;" parent="1" vertex="1">
          <mxGeometry x="-372" y="2209.92" width="10" height="40" as="geometry" />
        </mxCell>
        <mxCell id="vkENzP75K5TKaXmKiikp-125" value="" style="edgeStyle=segmentEdgeStyle;endArrow=classic;html=1;curved=0;rounded=0;endSize=8;startSize=8;sourcePerimeterSpacing=0;targetPerimeterSpacing=0;entryX=1;entryY=0.5;entryDx=0;entryDy=0;exitX=1.033;exitY=0.577;exitDx=0;exitDy=0;exitPerimeter=0;" parent="1" edge="1">
          <mxGeometry width="100" relative="1" as="geometry">
            <mxPoint x="-367" y="2201.92" as="sourcePoint" />
            <mxPoint x="-360" y="2240.92" as="targetPoint" />
            <Array as="points">
              <mxPoint x="-367" y="2199.92" />
              <mxPoint x="-325" y="2199.92" />
              <mxPoint x="-325" y="2240.92" />
            </Array>
          </mxGeometry>
        </mxCell>
        <mxCell id="vkENzP75K5TKaXmKiikp-126" value="Открыть главную страницу" style="text;html=1;align=center;verticalAlign=middle;resizable=0;points=[];autosize=1;strokeColor=none;fillColor=none;" parent="1" vertex="1">
          <mxGeometry x="-324" y="2209.92" width="170" height="30" as="geometry" />
        </mxCell>
        <mxCell id="vkENzP75K5TKaXmKiikp-127" value="" style="endArrow=classic;html=1;rounded=0;exitX=-0.145;exitY=0.822;exitDx=0;exitDy=0;exitPerimeter=0;dashed=1;entryX=1.149;entryY=0.821;entryDx=0;entryDy=0;entryPerimeter=0;" parent="1" source="vkENzP75K5TKaXmKiikp-89" target="vkENzP75K5TKaXmKiikp-88" edge="1">
          <mxGeometry width="50" height="50" relative="1" as="geometry">
            <mxPoint x="-487" y="2300" as="sourcePoint" />
            <mxPoint x="-607" y="2250" as="targetPoint" />
          </mxGeometry>
        </mxCell>
        <mxCell id="vkENzP75K5TKaXmKiikp-128" value="" style="group" parent="1" vertex="1" connectable="0">
          <mxGeometry x="-570.5" y="2230" width="175" height="40" as="geometry" />
        </mxCell>
        <mxCell id="vkENzP75K5TKaXmKiikp-129" value="Отобразить главную&lt;div&gt;страницу приложения&lt;/div&gt;" style="text;html=1;align=center;verticalAlign=middle;resizable=0;points=[];autosize=1;strokeColor=none;fillColor=none;" parent="vkENzP75K5TKaXmKiikp-128" vertex="1">
          <mxGeometry width="150" height="40" as="geometry" />
        </mxCell>
        <mxCell id="vkENzP75K5TKaXmKiikp-130" value="" style="endArrow=none;html=1;rounded=0;" parent="1" edge="1">
          <mxGeometry width="50" height="50" relative="1" as="geometry">
            <mxPoint x="-747" y="2280" as="sourcePoint" />
            <mxPoint x="-27" y="2280" as="targetPoint" />
          </mxGeometry>
        </mxCell>
        <mxCell id="vkENzP75K5TKaXmKiikp-131" value="&lt;b&gt;Просмотр календаря&lt;/b&gt;" style="text;html=1;align=center;verticalAlign=middle;resizable=0;points=[];autosize=1;strokeColor=none;fillColor=none;" parent="1" vertex="1">
          <mxGeometry x="-772" y="2290" width="150" height="30" as="geometry" />
        </mxCell>
        <mxCell id="vkENzP75K5TKaXmKiikp-132" value="" style="edgeStyle=none;orthogonalLoop=1;jettySize=auto;html=1;rounded=0;exitX=1.176;exitY=0.901;exitDx=0;exitDy=0;exitPerimeter=0;entryX=-0.424;entryY=0.9;entryDx=0;entryDy=0;entryPerimeter=0;" parent="1" source="vkENzP75K5TKaXmKiikp-88" target="vkENzP75K5TKaXmKiikp-89" edge="1">
          <mxGeometry width="100" relative="1" as="geometry">
            <mxPoint x="-577" y="2370" as="sourcePoint" />
            <mxPoint x="-477" y="2370" as="targetPoint" />
            <Array as="points" />
          </mxGeometry>
        </mxCell>
        <mxCell id="vkENzP75K5TKaXmKiikp-133" value="Открыть страницу календаря" style="text;html=1;align=center;verticalAlign=middle;resizable=0;points=[];autosize=1;strokeColor=none;fillColor=none;" parent="1" vertex="1">
          <mxGeometry x="-597" y="2300" width="190" height="30" as="geometry" />
        </mxCell>
        <mxCell id="vkENzP75K5TKaXmKiikp-134" value="" style="whiteSpace=wrap;html=1;" parent="1" vertex="1">
          <mxGeometry x="-377" y="2280" width="10" height="550" as="geometry" />
        </mxCell>
        <mxCell id="vkENzP75K5TKaXmKiikp-135" value="" style="whiteSpace=wrap;html=1;" parent="1" vertex="1">
          <mxGeometry x="-137" y="2280" width="10" height="550" as="geometry" />
        </mxCell>
        <mxCell id="vkENzP75K5TKaXmKiikp-136" value="" style="whiteSpace=wrap;html=1;" parent="1" vertex="1">
          <mxGeometry x="-617" y="2280" width="10" height="1950" as="geometry" />
        </mxCell>
        <mxCell id="vkENzP75K5TKaXmKiikp-137" value="" style="endArrow=classic;html=1;rounded=0;exitX=-0.3;exitY=0.8;exitDx=0;exitDy=0;exitPerimeter=0;dashed=1;" parent="1" edge="1">
          <mxGeometry width="50" height="50" relative="1" as="geometry">
            <mxPoint x="-380" y="2462" as="sourcePoint" />
            <mxPoint x="-607" y="2462" as="targetPoint" />
          </mxGeometry>
        </mxCell>
        <mxCell id="vkENzP75K5TKaXmKiikp-138" value="" style="group" parent="1" vertex="1" connectable="0">
          <mxGeometry x="-319.5" y="1770" width="195" height="40" as="geometry" />
        </mxCell>
        <mxCell id="vkENzP75K5TKaXmKiikp-139" value="Запросить текущие&lt;div&gt;данные пользователя&lt;/div&gt;" style="text;html=1;align=center;verticalAlign=middle;resizable=0;points=[];autosize=1;strokeColor=none;fillColor=none;" parent="vkENzP75K5TKaXmKiikp-138" vertex="1">
          <mxGeometry x="-10" width="150" height="40" as="geometry" />
        </mxCell>
        <mxCell id="vkENzP75K5TKaXmKiikp-140" value="" style="endArrow=classic;html=1;rounded=0;exitX=1;exitY=0.25;exitDx=0;exitDy=0;entryX=0;entryY=0.25;entryDx=0;entryDy=0;" parent="1" source="vkENzP75K5TKaXmKiikp-89" target="vkENzP75K5TKaXmKiikp-90" edge="1">
          <mxGeometry width="50" height="50" relative="1" as="geometry">
            <mxPoint x="-292" y="1865" as="sourcePoint" />
            <mxPoint x="-242" y="1815" as="targetPoint" />
          </mxGeometry>
        </mxCell>
        <mxCell id="vkENzP75K5TKaXmKiikp-141" value="" style="endArrow=classic;html=1;rounded=0;exitX=-0.367;exitY=0.668;exitDx=0;exitDy=0;exitPerimeter=0;entryX=1.167;entryY=0.669;entryDx=0;entryDy=0;entryPerimeter=0;dashed=1;" parent="1" edge="1">
          <mxGeometry width="50" height="50" relative="1" as="geometry">
            <mxPoint x="-138.5" y="1860" as="sourcePoint" />
            <mxPoint x="-362.5" y="1861" as="targetPoint" />
          </mxGeometry>
        </mxCell>
        <mxCell id="vkENzP75K5TKaXmKiikp-142" value="Вернуть текущие&lt;div&gt;данные пользователя&lt;/div&gt;" style="text;html=1;align=center;verticalAlign=middle;resizable=0;points=[];autosize=1;strokeColor=none;fillColor=none;" parent="1" vertex="1">
          <mxGeometry x="-332" y="1821" width="150" height="40" as="geometry" />
        </mxCell>
        <mxCell id="vkENzP75K5TKaXmKiikp-148" value="" style="endArrow=classic;html=1;rounded=0;exitX=1;exitY=0.25;exitDx=0;exitDy=0;entryX=0;entryY=0.25;entryDx=0;entryDy=0;" parent="1" edge="1">
          <mxGeometry width="50" height="50" relative="1" as="geometry">
            <mxPoint x="-364.5" y="2380" as="sourcePoint" />
            <mxPoint x="-136" y="2380" as="targetPoint" />
          </mxGeometry>
        </mxCell>
        <mxCell id="vkENzP75K5TKaXmKiikp-149" value="" style="group" parent="1" vertex="1" connectable="0">
          <mxGeometry x="-327" y="2340" width="195" height="40" as="geometry" />
        </mxCell>
        <mxCell id="vkENzP75K5TKaXmKiikp-150" value="Запросить данные календаря" style="text;html=1;align=center;verticalAlign=middle;resizable=0;points=[];autosize=1;strokeColor=none;fillColor=none;" parent="vkENzP75K5TKaXmKiikp-149" vertex="1">
          <mxGeometry x="-30" y="5" width="190" height="30" as="geometry" />
        </mxCell>
        <mxCell id="vkENzP75K5TKaXmKiikp-151" value="" style="endArrow=classic;html=1;rounded=0;exitX=-0.367;exitY=0.668;exitDx=0;exitDy=0;exitPerimeter=0;entryX=1.167;entryY=0.669;entryDx=0;entryDy=0;entryPerimeter=0;dashed=1;" parent="1" edge="1">
          <mxGeometry width="50" height="50" relative="1" as="geometry">
            <mxPoint x="-141" y="2434" as="sourcePoint" />
            <mxPoint x="-365" y="2435" as="targetPoint" />
          </mxGeometry>
        </mxCell>
        <mxCell id="vkENzP75K5TKaXmKiikp-152" value="Вернуть данные календаря" style="text;html=1;align=center;verticalAlign=middle;resizable=0;points=[];autosize=1;strokeColor=none;fillColor=none;" parent="1" vertex="1">
          <mxGeometry x="-349.5" y="2400" width="180" height="30" as="geometry" />
        </mxCell>
        <mxCell id="vkENzP75K5TKaXmKiikp-153" value="Отобразить страницу календаря" style="text;html=1;align=center;verticalAlign=middle;resizable=0;points=[];autosize=1;strokeColor=none;fillColor=none;" parent="1" vertex="1">
          <mxGeometry x="-593.5" y="2430" width="210" height="30" as="geometry" />
        </mxCell>
        <mxCell id="vkENzP75K5TKaXmKiikp-154" value="" style="group" parent="1" vertex="1" connectable="0">
          <mxGeometry x="-464.5" y="1999.96" width="520" height="180.08" as="geometry" />
        </mxCell>
        <mxCell id="vkENzP75K5TKaXmKiikp-155" value="" style="group" parent="vkENzP75K5TKaXmKiikp-154" vertex="1" connectable="0">
          <mxGeometry width="520" height="180.08" as="geometry" />
        </mxCell>
        <mxCell id="vkENzP75K5TKaXmKiikp-156" value="" style="rounded=0;whiteSpace=wrap;html=1;fillColor=none;" parent="vkENzP75K5TKaXmKiikp-155" vertex="1">
          <mxGeometry width="520" height="180.08" as="geometry" />
        </mxCell>
        <mxCell id="vkENzP75K5TKaXmKiikp-157" value="loop" style="whiteSpace=wrap;html=1;fillColor=none;" parent="vkENzP75K5TKaXmKiikp-155" vertex="1">
          <mxGeometry width="73.53535353535352" height="42.371764705882356" as="geometry" />
        </mxCell>
        <mxCell id="vkENzP75K5TKaXmKiikp-158" value="" style="endArrow=none;html=1;rounded=0;" parent="1" edge="1">
          <mxGeometry width="50" height="50" relative="1" as="geometry">
            <mxPoint x="-747" y="2480" as="sourcePoint" />
            <mxPoint x="-27" y="2480" as="targetPoint" />
          </mxGeometry>
        </mxCell>
        <mxCell id="vkENzP75K5TKaXmKiikp-159" value="&lt;b&gt;Изменение домашнего задания&lt;/b&gt;" style="text;html=1;align=center;verticalAlign=middle;resizable=0;points=[];autosize=1;strokeColor=none;fillColor=none;" parent="1" vertex="1">
          <mxGeometry x="-817" y="2500" width="210" height="30" as="geometry" />
        </mxCell>
        <mxCell id="vkENzP75K5TKaXmKiikp-160" value="Открыть страницу домашних заданий" style="text;html=1;align=center;verticalAlign=middle;resizable=0;points=[];autosize=1;strokeColor=none;fillColor=none;" parent="1" vertex="1">
          <mxGeometry x="-609.5" y="2540" width="240" height="30" as="geometry" />
        </mxCell>
        <mxCell id="vkENzP75K5TKaXmKiikp-161" value="" style="edgeStyle=none;orthogonalLoop=1;jettySize=auto;html=1;rounded=0;exitX=1.176;exitY=0.901;exitDx=0;exitDy=0;exitPerimeter=0;entryX=0.095;entryY=0.527;entryDx=0;entryDy=0;entryPerimeter=0;" parent="1" target="vkENzP75K5TKaXmKiikp-134" edge="1">
          <mxGeometry width="100" relative="1" as="geometry">
            <mxPoint x="-606.5" y="2570.47" as="sourcePoint" />
            <mxPoint x="-382.5" y="2569.47" as="targetPoint" />
            <Array as="points" />
          </mxGeometry>
        </mxCell>
        <mxCell id="vkENzP75K5TKaXmKiikp-162" value="" style="group" parent="1" vertex="1" connectable="0">
          <mxGeometry x="-319" y="2580" width="195" height="40" as="geometry" />
        </mxCell>
        <mxCell id="vkENzP75K5TKaXmKiikp-163" value="Запросить список домашних заданий" style="text;html=1;align=center;verticalAlign=middle;resizable=0;points=[];autosize=1;strokeColor=none;fillColor=none;" parent="vkENzP75K5TKaXmKiikp-162" vertex="1">
          <mxGeometry x="-50" y="5" width="230" height="30" as="geometry" />
        </mxCell>
        <mxCell id="vkENzP75K5TKaXmKiikp-164" value="" style="endArrow=classic;html=1;rounded=0;exitX=1;exitY=0.25;exitDx=0;exitDy=0;entryX=0;entryY=0.25;entryDx=0;entryDy=0;" parent="1" edge="1">
          <mxGeometry width="50" height="50" relative="1" as="geometry">
            <mxPoint x="-367" y="2620" as="sourcePoint" />
            <mxPoint x="-138.5" y="2620" as="targetPoint" />
          </mxGeometry>
        </mxCell>
        <mxCell id="vkENzP75K5TKaXmKiikp-165" value="Вернуть список домашних заданий" style="text;html=1;align=center;verticalAlign=middle;resizable=0;points=[];autosize=1;strokeColor=none;fillColor=none;" parent="1" vertex="1">
          <mxGeometry x="-371.5" y="2650" width="220" height="30" as="geometry" />
        </mxCell>
        <mxCell id="vkENzP75K5TKaXmKiikp-166" value="" style="endArrow=classic;html=1;rounded=0;exitX=-0.367;exitY=0.668;exitDx=0;exitDy=0;exitPerimeter=0;entryX=1.167;entryY=0.669;entryDx=0;entryDy=0;entryPerimeter=0;dashed=1;" parent="1" edge="1">
          <mxGeometry width="50" height="50" relative="1" as="geometry">
            <mxPoint x="-143" y="2684" as="sourcePoint" />
            <mxPoint x="-367" y="2685" as="targetPoint" />
          </mxGeometry>
        </mxCell>
        <mxCell id="vkENzP75K5TKaXmKiikp-167" value="Отобразить страницу&lt;div&gt;домашних заданий&lt;/div&gt;" style="text;html=1;align=center;verticalAlign=middle;resizable=0;points=[];autosize=1;strokeColor=none;fillColor=none;" parent="1" vertex="1">
          <mxGeometry x="-558.5" y="2665" width="140" height="40" as="geometry" />
        </mxCell>
        <mxCell id="vkENzP75K5TKaXmKiikp-168" value="" style="endArrow=classic;html=1;rounded=0;exitX=-0.3;exitY=0.8;exitDx=0;exitDy=0;exitPerimeter=0;dashed=1;" parent="1" edge="1">
          <mxGeometry width="50" height="50" relative="1" as="geometry">
            <mxPoint x="-380" y="2702" as="sourcePoint" />
            <mxPoint x="-607" y="2702" as="targetPoint" />
          </mxGeometry>
        </mxCell>
        <mxCell id="vkENzP75K5TKaXmKiikp-169" value="" style="edgeStyle=none;orthogonalLoop=1;jettySize=auto;html=1;rounded=0;exitX=1.176;exitY=0.901;exitDx=0;exitDy=0;exitPerimeter=0;entryX=0;entryY=0.891;entryDx=0;entryDy=0;entryPerimeter=0;" parent="1" target="vkENzP75K5TKaXmKiikp-134" edge="1">
          <mxGeometry width="100" relative="1" as="geometry">
            <mxPoint x="-606.5" y="2771" as="sourcePoint" />
            <mxPoint x="-382.5" y="2770" as="targetPoint" />
            <Array as="points" />
          </mxGeometry>
        </mxCell>
        <mxCell id="vkENzP75K5TKaXmKiikp-170" value="Открыть&lt;div&gt;домашнее задание&lt;/div&gt;" style="text;html=1;align=center;verticalAlign=middle;resizable=0;points=[];autosize=1;strokeColor=none;fillColor=none;" parent="1" vertex="1">
          <mxGeometry x="-554.5" y="2735" width="130" height="40" as="geometry" />
        </mxCell>
        <mxCell id="vkENzP75K5TKaXmKiikp-171" value="" style="endArrow=classic;html=1;rounded=0;exitX=-0.3;exitY=0.8;exitDx=0;exitDy=0;exitPerimeter=0;dashed=1;" parent="1" edge="1">
          <mxGeometry width="50" height="50" relative="1" as="geometry">
            <mxPoint x="-381" y="2850" as="sourcePoint" />
            <mxPoint x="-608" y="2850" as="targetPoint" />
          </mxGeometry>
        </mxCell>
        <mxCell id="vkENzP75K5TKaXmKiikp-172" value="Отобразить информацию о&lt;div&gt;домашнем задании&lt;/div&gt;" style="text;html=1;align=center;verticalAlign=middle;resizable=0;points=[];autosize=1;strokeColor=none;fillColor=none;" parent="1" vertex="1">
          <mxGeometry x="-578.5" y="2810" width="180" height="40" as="geometry" />
        </mxCell>
        <mxCell id="vkENzP75K5TKaXmKiikp-173" value="" style="whiteSpace=wrap;html=1;" parent="1" vertex="1">
          <mxGeometry x="-377" y="2480" width="10" height="1760" as="geometry" />
        </mxCell>
        <mxCell id="vkENzP75K5TKaXmKiikp-174" value="" style="whiteSpace=wrap;html=1;" parent="1" vertex="1">
          <mxGeometry x="-137" y="2480" width="10" height="1760" as="geometry" />
        </mxCell>
        <mxCell id="vkENzP75K5TKaXmKiikp-175" value="Внести изменения в домашнее задание" style="text;html=1;align=center;verticalAlign=middle;resizable=0;points=[];autosize=1;strokeColor=none;fillColor=none;" parent="1" vertex="1">
          <mxGeometry x="-614.5" y="2865" width="250" height="30" as="geometry" />
        </mxCell>
        <mxCell id="vkENzP75K5TKaXmKiikp-176" value="" style="edgeStyle=none;orthogonalLoop=1;jettySize=auto;html=1;rounded=0;exitX=1.176;exitY=0.901;exitDx=0;exitDy=0;exitPerimeter=0;entryX=0;entryY=0.891;entryDx=0;entryDy=0;entryPerimeter=0;" parent="1" edge="1">
          <mxGeometry width="100" relative="1" as="geometry">
            <mxPoint x="-606.5" y="2896" as="sourcePoint" />
            <mxPoint x="-377" y="2895" as="targetPoint" />
            <Array as="points" />
          </mxGeometry>
        </mxCell>
        <mxCell id="vkENzP75K5TKaXmKiikp-177" value="Запросить подтверждение изменений" style="text;html=1;align=center;verticalAlign=middle;resizable=0;points=[];autosize=1;strokeColor=none;fillColor=none;" parent="1" vertex="1">
          <mxGeometry x="-608" y="2915" width="240" height="30" as="geometry" />
        </mxCell>
        <mxCell id="vkENzP75K5TKaXmKiikp-178" value="" style="endArrow=classic;html=1;rounded=0;exitX=-0.3;exitY=0.8;exitDx=0;exitDy=0;exitPerimeter=0;dashed=1;" parent="1" edge="1">
          <mxGeometry width="50" height="50" relative="1" as="geometry">
            <mxPoint x="-379.5" y="2947" as="sourcePoint" />
            <mxPoint x="-606.5" y="2947" as="targetPoint" />
          </mxGeometry>
        </mxCell>
        <mxCell id="vkENzP75K5TKaXmKiikp-179" value="" style="edgeStyle=none;orthogonalLoop=1;jettySize=auto;html=1;rounded=0;exitX=1.176;exitY=0.901;exitDx=0;exitDy=0;exitPerimeter=0;entryX=0;entryY=0.891;entryDx=0;entryDy=0;entryPerimeter=0;" parent="1" edge="1">
          <mxGeometry width="100" relative="1" as="geometry">
            <mxPoint x="-606.5" y="3001" as="sourcePoint" />
            <mxPoint x="-377" y="3000" as="targetPoint" />
            <Array as="points" />
          </mxGeometry>
        </mxCell>
        <mxCell id="vkENzP75K5TKaXmKiikp-180" value="Подтвердить изменения" style="text;html=1;align=center;verticalAlign=middle;resizable=0;points=[];autosize=1;strokeColor=none;fillColor=none;" parent="1" vertex="1">
          <mxGeometry x="-567" y="2970" width="160" height="30" as="geometry" />
        </mxCell>
        <mxCell id="vkENzP75K5TKaXmKiikp-181" value="" style="endArrow=classic;html=1;rounded=0;exitX=1;exitY=0.25;exitDx=0;exitDy=0;entryX=0;entryY=0.25;entryDx=0;entryDy=0;" parent="1" edge="1">
          <mxGeometry width="50" height="50" relative="1" as="geometry">
            <mxPoint x="-363.75" y="3040" as="sourcePoint" />
            <mxPoint x="-135.25" y="3040" as="targetPoint" />
          </mxGeometry>
        </mxCell>
        <mxCell id="vkENzP75K5TKaXmKiikp-182" value="" style="group" parent="1" vertex="1" connectable="0">
          <mxGeometry x="-317" y="3000" width="195" height="40" as="geometry" />
        </mxCell>
        <mxCell id="vkENzP75K5TKaXmKiikp-183" value="Запросить изменение&amp;nbsp;&lt;div&gt;домашнего задания на сервере&lt;/div&gt;" style="text;html=1;align=center;verticalAlign=middle;resizable=0;points=[];autosize=1;strokeColor=none;fillColor=none;" parent="vkENzP75K5TKaXmKiikp-182" vertex="1">
          <mxGeometry x="-35" width="200" height="40" as="geometry" />
        </mxCell>
        <mxCell id="vkENzP75K5TKaXmKiikp-184" value="" style="rounded=0;whiteSpace=wrap;html=1;" parent="1" vertex="1">
          <mxGeometry x="-132" y="3070" width="10" height="40" as="geometry" />
        </mxCell>
        <mxCell id="vkENzP75K5TKaXmKiikp-185" value="Обновить информацию о&lt;div&gt;домашнем задании&lt;/div&gt;" style="text;html=1;align=center;verticalAlign=middle;resizable=0;points=[];autosize=1;strokeColor=none;fillColor=none;" parent="1" vertex="1">
          <mxGeometry x="-97" y="3060" width="170" height="40" as="geometry" />
        </mxCell>
        <mxCell id="vkENzP75K5TKaXmKiikp-186" value="" style="edgeStyle=segmentEdgeStyle;endArrow=classic;html=1;curved=0;rounded=0;endSize=8;startSize=8;sourcePerimeterSpacing=0;targetPerimeterSpacing=0;entryX=1;entryY=0.5;entryDx=0;entryDy=0;exitX=1.033;exitY=0.577;exitDx=0;exitDy=0;exitPerimeter=0;" parent="1" edge="1">
          <mxGeometry width="100" relative="1" as="geometry">
            <mxPoint x="-127" y="3062" as="sourcePoint" />
            <mxPoint x="-120" y="3101" as="targetPoint" />
            <Array as="points">
              <mxPoint x="-127" y="3060" />
              <mxPoint x="-85" y="3060" />
              <mxPoint x="-85" y="3101" />
            </Array>
          </mxGeometry>
        </mxCell>
        <mxCell id="vkENzP75K5TKaXmKiikp-187" value="" style="endArrow=classic;html=1;rounded=0;exitX=-0.367;exitY=0.668;exitDx=0;exitDy=0;exitPerimeter=0;entryX=1.167;entryY=0.669;entryDx=0;entryDy=0;entryPerimeter=0;dashed=1;" parent="1" edge="1">
          <mxGeometry width="50" height="50" relative="1" as="geometry">
            <mxPoint x="-140.5" y="3130" as="sourcePoint" />
            <mxPoint x="-364.5" y="3131" as="targetPoint" />
          </mxGeometry>
        </mxCell>
        <mxCell id="vkENzP75K5TKaXmKiikp-188" value="Подтвердить изменения" style="text;html=1;align=center;verticalAlign=middle;resizable=0;points=[];autosize=1;strokeColor=none;fillColor=none;" parent="1" vertex="1">
          <mxGeometry x="-327" y="3100" width="160" height="30" as="geometry" />
        </mxCell>
        <mxCell id="vkENzP75K5TKaXmKiikp-189" value="Уведомить об&amp;nbsp;&lt;span style=&quot;background-color: initial;&quot;&gt;успешном&lt;/span&gt;&lt;div&gt;&lt;span style=&quot;background-color: initial;&quot;&gt;изменении домашнего задания&lt;/span&gt;&lt;/div&gt;" style="text;html=1;align=center;verticalAlign=middle;resizable=0;points=[];autosize=1;strokeColor=none;fillColor=none;" parent="1" vertex="1">
          <mxGeometry x="-586" y="3135" width="200" height="40" as="geometry" />
        </mxCell>
        <mxCell id="vkENzP75K5TKaXmKiikp-190" value="" style="endArrow=classic;html=1;rounded=0;exitX=-0.367;exitY=0.668;exitDx=0;exitDy=0;exitPerimeter=0;entryX=1.167;entryY=0.669;entryDx=0;entryDy=0;entryPerimeter=0;dashed=1;" parent="1" edge="1">
          <mxGeometry width="50" height="50" relative="1" as="geometry">
            <mxPoint x="-379.5" y="3170" as="sourcePoint" />
            <mxPoint x="-603.5" y="3171" as="targetPoint" />
          </mxGeometry>
        </mxCell>
        <mxCell id="vkENzP75K5TKaXmKiikp-191" value="" style="endArrow=none;html=1;rounded=0;" parent="1" edge="1">
          <mxGeometry width="50" height="50" relative="1" as="geometry">
            <mxPoint x="-747" y="3200" as="sourcePoint" />
            <mxPoint x="-27" y="3200" as="targetPoint" />
          </mxGeometry>
        </mxCell>
        <mxCell id="vkENzP75K5TKaXmKiikp-192" value="&lt;b&gt;Создание домашнего задания&lt;/b&gt;" style="text;html=1;align=center;verticalAlign=middle;resizable=0;points=[];autosize=1;strokeColor=none;fillColor=none;" parent="1" vertex="1">
          <mxGeometry x="-827" y="3240" width="200" height="30" as="geometry" />
        </mxCell>
        <mxCell id="vkENzP75K5TKaXmKiikp-193" value="Открыть страницу домашних заданий" style="text;html=1;align=center;verticalAlign=middle;resizable=0;points=[];autosize=1;strokeColor=none;fillColor=none;" parent="1" vertex="1">
          <mxGeometry x="-609" y="3246.75" width="240" height="30" as="geometry" />
        </mxCell>
        <mxCell id="vkENzP75K5TKaXmKiikp-194" value="" style="edgeStyle=none;orthogonalLoop=1;jettySize=auto;html=1;rounded=0;exitX=1.176;exitY=0.901;exitDx=0;exitDy=0;exitPerimeter=0;entryX=0.095;entryY=0.527;entryDx=0;entryDy=0;entryPerimeter=0;" parent="1" edge="1">
          <mxGeometry width="100" relative="1" as="geometry">
            <mxPoint x="-606" y="3277.22" as="sourcePoint" />
            <mxPoint x="-375.5" y="3276.75" as="targetPoint" />
            <Array as="points" />
          </mxGeometry>
        </mxCell>
        <mxCell id="vkENzP75K5TKaXmKiikp-195" value="" style="group" parent="1" vertex="1" connectable="0">
          <mxGeometry x="-318.5" y="3286.75" width="195" height="40" as="geometry" />
        </mxCell>
        <mxCell id="vkENzP75K5TKaXmKiikp-196" value="Запросить список домашних заданий" style="text;html=1;align=center;verticalAlign=middle;resizable=0;points=[];autosize=1;strokeColor=none;fillColor=none;" parent="vkENzP75K5TKaXmKiikp-195" vertex="1">
          <mxGeometry x="-50" y="5" width="230" height="30" as="geometry" />
        </mxCell>
        <mxCell id="vkENzP75K5TKaXmKiikp-197" value="" style="endArrow=classic;html=1;rounded=0;exitX=1;exitY=0.25;exitDx=0;exitDy=0;entryX=0;entryY=0.25;entryDx=0;entryDy=0;" parent="1" edge="1">
          <mxGeometry width="50" height="50" relative="1" as="geometry">
            <mxPoint x="-366.5" y="3326.75" as="sourcePoint" />
            <mxPoint x="-138" y="3326.75" as="targetPoint" />
          </mxGeometry>
        </mxCell>
        <mxCell id="vkENzP75K5TKaXmKiikp-198" value="Вернуть список домашних заданий" style="text;html=1;align=center;verticalAlign=middle;resizable=0;points=[];autosize=1;strokeColor=none;fillColor=none;" parent="1" vertex="1">
          <mxGeometry x="-371" y="3356.75" width="220" height="30" as="geometry" />
        </mxCell>
        <mxCell id="vkENzP75K5TKaXmKiikp-199" value="" style="endArrow=classic;html=1;rounded=0;exitX=-0.367;exitY=0.668;exitDx=0;exitDy=0;exitPerimeter=0;entryX=1.167;entryY=0.669;entryDx=0;entryDy=0;entryPerimeter=0;dashed=1;" parent="1" edge="1">
          <mxGeometry width="50" height="50" relative="1" as="geometry">
            <mxPoint x="-142.5" y="3390.75" as="sourcePoint" />
            <mxPoint x="-366.5" y="3391.75" as="targetPoint" />
          </mxGeometry>
        </mxCell>
        <mxCell id="vkENzP75K5TKaXmKiikp-200" value="Отобразить страницу&lt;div&gt;домашних заданий&lt;/div&gt;" style="text;html=1;align=center;verticalAlign=middle;resizable=0;points=[];autosize=1;strokeColor=none;fillColor=none;" parent="1" vertex="1">
          <mxGeometry x="-558" y="3371.75" width="140" height="40" as="geometry" />
        </mxCell>
        <mxCell id="vkENzP75K5TKaXmKiikp-201" value="" style="endArrow=classic;html=1;rounded=0;exitX=-0.3;exitY=0.8;exitDx=0;exitDy=0;exitPerimeter=0;dashed=1;" parent="1" edge="1">
          <mxGeometry width="50" height="50" relative="1" as="geometry">
            <mxPoint x="-379.5" y="3408.75" as="sourcePoint" />
            <mxPoint x="-606.5" y="3408.75" as="targetPoint" />
          </mxGeometry>
        </mxCell>
        <mxCell id="vkENzP75K5TKaXmKiikp-202" value="" style="edgeStyle=none;orthogonalLoop=1;jettySize=auto;html=1;rounded=0;exitX=1.176;exitY=0.901;exitDx=0;exitDy=0;exitPerimeter=0;entryX=0.095;entryY=0.527;entryDx=0;entryDy=0;entryPerimeter=0;" parent="1" edge="1">
          <mxGeometry width="100" relative="1" as="geometry">
            <mxPoint x="-606.5" y="3470.47" as="sourcePoint" />
            <mxPoint x="-376" y="3470" as="targetPoint" />
            <Array as="points" />
          </mxGeometry>
        </mxCell>
        <mxCell id="vkENzP75K5TKaXmKiikp-203" value="Открыть страницу создания&lt;div&gt;домашнего задания&lt;/div&gt;" style="text;html=1;align=center;verticalAlign=middle;resizable=0;points=[];autosize=1;strokeColor=none;fillColor=none;" parent="1" vertex="1">
          <mxGeometry x="-579.5" y="3435" width="180" height="40" as="geometry" />
        </mxCell>
        <mxCell id="vkENzP75K5TKaXmKiikp-204" value="" style="endArrow=classic;html=1;rounded=0;exitX=-0.3;exitY=0.8;exitDx=0;exitDy=0;exitPerimeter=0;dashed=1;" parent="1" edge="1">
          <mxGeometry width="50" height="50" relative="1" as="geometry">
            <mxPoint x="-378.5" y="3527" as="sourcePoint" />
            <mxPoint x="-605.5" y="3527" as="targetPoint" />
          </mxGeometry>
        </mxCell>
        <mxCell id="vkENzP75K5TKaXmKiikp-205" value="Отобразить страницу&lt;div&gt;создания домашнего задания&lt;/div&gt;" style="text;html=1;align=center;verticalAlign=middle;resizable=0;points=[];autosize=1;strokeColor=none;fillColor=none;" parent="1" vertex="1">
          <mxGeometry x="-582" y="3490" width="190" height="40" as="geometry" />
        </mxCell>
        <mxCell id="vkENzP75K5TKaXmKiikp-206" value="" style="edgeStyle=none;orthogonalLoop=1;jettySize=auto;html=1;rounded=0;exitX=1.176;exitY=0.901;exitDx=0;exitDy=0;exitPerimeter=0;entryX=0.095;entryY=0.527;entryDx=0;entryDy=0;entryPerimeter=0;" parent="1" edge="1">
          <mxGeometry width="100" relative="1" as="geometry">
            <mxPoint x="-607" y="3585.47" as="sourcePoint" />
            <mxPoint x="-376.5" y="3585" as="targetPoint" />
            <Array as="points" />
          </mxGeometry>
        </mxCell>
        <mxCell id="vkENzP75K5TKaXmKiikp-207" value="Ввести данные&lt;div&gt;домашнего задания&lt;/div&gt;" style="text;html=1;align=center;verticalAlign=middle;resizable=0;points=[];autosize=1;strokeColor=none;fillColor=none;" parent="1" vertex="1">
          <mxGeometry x="-555" y="3550" width="130" height="40" as="geometry" />
        </mxCell>
        <mxCell id="vkENzP75K5TKaXmKiikp-208" value="" style="group" parent="1" vertex="1" connectable="0">
          <mxGeometry x="-318.5" y="3590" width="195" height="40" as="geometry" />
        </mxCell>
        <mxCell id="vkENzP75K5TKaXmKiikp-209" value="Запросить создание&lt;div&gt;нового домашнего задания&lt;/div&gt;" style="text;html=1;align=center;verticalAlign=middle;resizable=0;points=[];autosize=1;strokeColor=none;fillColor=none;" parent="vkENzP75K5TKaXmKiikp-208" vertex="1">
          <mxGeometry x="-25" width="180" height="40" as="geometry" />
        </mxCell>
        <mxCell id="vkENzP75K5TKaXmKiikp-210" value="" style="endArrow=classic;html=1;rounded=0;exitX=1;exitY=0.25;exitDx=0;exitDy=0;entryX=0;entryY=0.25;entryDx=0;entryDy=0;" parent="1" edge="1">
          <mxGeometry width="50" height="50" relative="1" as="geometry">
            <mxPoint x="-366.5" y="3630" as="sourcePoint" />
            <mxPoint x="-138" y="3630" as="targetPoint" />
          </mxGeometry>
        </mxCell>
        <mxCell id="vkENzP75K5TKaXmKiikp-211" value="" style="rounded=0;whiteSpace=wrap;html=1;" parent="1" vertex="1">
          <mxGeometry x="-132" y="3690" width="10" height="40" as="geometry" />
        </mxCell>
        <mxCell id="vkENzP75K5TKaXmKiikp-212" value="Добавить новое&lt;div&gt;домашнее задание&lt;/div&gt;" style="text;html=1;align=center;verticalAlign=middle;resizable=0;points=[];autosize=1;strokeColor=none;fillColor=none;" parent="1" vertex="1">
          <mxGeometry x="-87" y="3680" width="130" height="40" as="geometry" />
        </mxCell>
        <mxCell id="vkENzP75K5TKaXmKiikp-213" value="" style="edgeStyle=segmentEdgeStyle;endArrow=classic;html=1;curved=0;rounded=0;endSize=8;startSize=8;sourcePerimeterSpacing=0;targetPerimeterSpacing=0;entryX=1;entryY=0.5;entryDx=0;entryDy=0;exitX=1.033;exitY=0.577;exitDx=0;exitDy=0;exitPerimeter=0;" parent="1" edge="1">
          <mxGeometry width="100" relative="1" as="geometry">
            <mxPoint x="-127" y="3682" as="sourcePoint" />
            <mxPoint x="-120" y="3721" as="targetPoint" />
            <Array as="points">
              <mxPoint x="-127" y="3680" />
              <mxPoint x="-85" y="3680" />
              <mxPoint x="-85" y="3721" />
            </Array>
          </mxGeometry>
        </mxCell>
        <mxCell id="vkENzP75K5TKaXmKiikp-214" value="Подтвердить создание" style="text;html=1;align=center;verticalAlign=middle;resizable=0;points=[];autosize=1;strokeColor=none;fillColor=none;" parent="1" vertex="1">
          <mxGeometry x="-322" y="3740" width="150" height="30" as="geometry" />
        </mxCell>
        <mxCell id="vkENzP75K5TKaXmKiikp-215" value="" style="endArrow=classic;html=1;rounded=0;exitX=-0.367;exitY=0.668;exitDx=0;exitDy=0;exitPerimeter=0;entryX=1.167;entryY=0.669;entryDx=0;entryDy=0;entryPerimeter=0;dashed=1;" parent="1" edge="1">
          <mxGeometry width="50" height="50" relative="1" as="geometry">
            <mxPoint x="-140.5" y="3770" as="sourcePoint" />
            <mxPoint x="-364.5" y="3771" as="targetPoint" />
          </mxGeometry>
        </mxCell>
        <mxCell id="vkENzP75K5TKaXmKiikp-216" value="Уведомить об успешном создании&lt;div&gt;домашнего задания&lt;/div&gt;" style="text;html=1;align=center;verticalAlign=middle;resizable=0;points=[];autosize=1;strokeColor=none;fillColor=none;" parent="1" vertex="1">
          <mxGeometry x="-592" y="3780" width="210" height="40" as="geometry" />
        </mxCell>
        <mxCell id="vkENzP75K5TKaXmKiikp-217" value="" style="endArrow=classic;html=1;rounded=0;exitX=-0.3;exitY=0.8;exitDx=0;exitDy=0;exitPerimeter=0;dashed=1;" parent="1" edge="1">
          <mxGeometry width="50" height="50" relative="1" as="geometry">
            <mxPoint x="-378.5" y="3817" as="sourcePoint" />
            <mxPoint x="-605.5" y="3817" as="targetPoint" />
          </mxGeometry>
        </mxCell>
        <mxCell id="vkENzP75K5TKaXmKiikp-219" value="" style="endArrow=classic;html=1;rounded=0;exitX=1;exitY=0.25;exitDx=0;exitDy=0;entryX=0;entryY=0.25;entryDx=0;entryDy=0;" parent="1" edge="1">
          <mxGeometry width="50" height="50" relative="1" as="geometry">
            <mxPoint x="-365" y="2790" as="sourcePoint" />
            <mxPoint x="-136.5" y="2790" as="targetPoint" />
          </mxGeometry>
        </mxCell>
        <mxCell id="vkENzP75K5TKaXmKiikp-220" value="" style="group" parent="1" vertex="1" connectable="0">
          <mxGeometry x="-317" y="2750" width="195" height="40" as="geometry" />
        </mxCell>
        <mxCell id="vkENzP75K5TKaXmKiikp-221" value="Запросить информацию&lt;div&gt;о домашнем задании&lt;/div&gt;" style="text;html=1;align=center;verticalAlign=middle;resizable=0;points=[];autosize=1;strokeColor=none;fillColor=none;" parent="vkENzP75K5TKaXmKiikp-220" vertex="1">
          <mxGeometry x="-15" width="160" height="40" as="geometry" />
        </mxCell>
        <mxCell id="vkENzP75K5TKaXmKiikp-222" value="" style="endArrow=classic;html=1;rounded=0;exitX=-0.367;exitY=0.668;exitDx=0;exitDy=0;exitPerimeter=0;entryX=1.167;entryY=0.669;entryDx=0;entryDy=0;entryPerimeter=0;dashed=1;" parent="1" edge="1">
          <mxGeometry width="50" height="50" relative="1" as="geometry">
            <mxPoint x="-140.5" y="2840" as="sourcePoint" />
            <mxPoint x="-364.5" y="2841" as="targetPoint" />
          </mxGeometry>
        </mxCell>
        <mxCell id="vkENzP75K5TKaXmKiikp-223" value="Вернуть информацию&lt;div&gt;о домашнем задании&lt;/div&gt;" style="text;html=1;align=center;verticalAlign=middle;resizable=0;points=[];autosize=1;strokeColor=none;fillColor=none;" parent="1" vertex="1">
          <mxGeometry x="-332" y="2800" width="150" height="40" as="geometry" />
        </mxCell>
        <mxCell id="vkENzP75K5TKaXmKiikp-224" value="" style="endArrow=none;html=1;rounded=0;" parent="1" edge="1">
          <mxGeometry width="50" height="50" relative="1" as="geometry">
            <mxPoint x="-747" y="3850" as="sourcePoint" />
            <mxPoint x="-27" y="3850" as="targetPoint" />
          </mxGeometry>
        </mxCell>
        <mxCell id="vkENzP75K5TKaXmKiikp-225" value="&lt;b&gt;Просмотр домашнего задания&lt;/b&gt;" style="text;html=1;align=center;verticalAlign=middle;resizable=0;points=[];autosize=1;strokeColor=none;fillColor=none;" parent="1" vertex="1">
          <mxGeometry x="-827" y="3890" width="200" height="30" as="geometry" />
        </mxCell>
        <mxCell id="vkENzP75K5TKaXmKiikp-226" value="Открыть страницу домашних заданий" style="text;html=1;align=center;verticalAlign=middle;resizable=0;points=[];autosize=1;strokeColor=none;fillColor=none;" parent="1" vertex="1">
          <mxGeometry x="-607" y="3880" width="240" height="30" as="geometry" />
        </mxCell>
        <mxCell id="vkENzP75K5TKaXmKiikp-227" value="" style="edgeStyle=none;orthogonalLoop=1;jettySize=auto;html=1;rounded=0;exitX=1.176;exitY=0.901;exitDx=0;exitDy=0;exitPerimeter=0;entryX=0.095;entryY=0.527;entryDx=0;entryDy=0;entryPerimeter=0;" parent="1" edge="1">
          <mxGeometry width="100" relative="1" as="geometry">
            <mxPoint x="-604" y="3910.47" as="sourcePoint" />
            <mxPoint x="-373.5" y="3910" as="targetPoint" />
            <Array as="points" />
          </mxGeometry>
        </mxCell>
        <mxCell id="vkENzP75K5TKaXmKiikp-228" value="" style="group" parent="1" vertex="1" connectable="0">
          <mxGeometry x="-316.5" y="3920" width="195" height="40" as="geometry" />
        </mxCell>
        <mxCell id="vkENzP75K5TKaXmKiikp-229" value="Запросить список домашних заданий" style="text;html=1;align=center;verticalAlign=middle;resizable=0;points=[];autosize=1;strokeColor=none;fillColor=none;" parent="vkENzP75K5TKaXmKiikp-228" vertex="1">
          <mxGeometry x="-50" y="5" width="230" height="30" as="geometry" />
        </mxCell>
        <mxCell id="vkENzP75K5TKaXmKiikp-230" value="" style="endArrow=classic;html=1;rounded=0;exitX=1;exitY=0.25;exitDx=0;exitDy=0;entryX=0;entryY=0.25;entryDx=0;entryDy=0;" parent="1" edge="1">
          <mxGeometry width="50" height="50" relative="1" as="geometry">
            <mxPoint x="-364.5" y="3960" as="sourcePoint" />
            <mxPoint x="-136" y="3960" as="targetPoint" />
          </mxGeometry>
        </mxCell>
        <mxCell id="vkENzP75K5TKaXmKiikp-231" value="Вернуть список домашних заданий" style="text;html=1;align=center;verticalAlign=middle;resizable=0;points=[];autosize=1;strokeColor=none;fillColor=none;" parent="1" vertex="1">
          <mxGeometry x="-369" y="3990" width="220" height="30" as="geometry" />
        </mxCell>
        <mxCell id="vkENzP75K5TKaXmKiikp-232" value="" style="endArrow=classic;html=1;rounded=0;exitX=-0.367;exitY=0.668;exitDx=0;exitDy=0;exitPerimeter=0;entryX=1.167;entryY=0.669;entryDx=0;entryDy=0;entryPerimeter=0;dashed=1;" parent="1" edge="1">
          <mxGeometry width="50" height="50" relative="1" as="geometry">
            <mxPoint x="-140.5" y="4024.0000000000005" as="sourcePoint" />
            <mxPoint x="-364.5" y="4025.0000000000005" as="targetPoint" />
          </mxGeometry>
        </mxCell>
        <mxCell id="vkENzP75K5TKaXmKiikp-233" value="Отобразить страницу&lt;div&gt;домашних заданий&lt;/div&gt;" style="text;html=1;align=center;verticalAlign=middle;resizable=0;points=[];autosize=1;strokeColor=none;fillColor=none;" parent="1" vertex="1">
          <mxGeometry x="-556" y="4005" width="140" height="40" as="geometry" />
        </mxCell>
        <mxCell id="vkENzP75K5TKaXmKiikp-234" value="" style="endArrow=classic;html=1;rounded=0;exitX=-0.3;exitY=0.8;exitDx=0;exitDy=0;exitPerimeter=0;dashed=1;" parent="1" edge="1">
          <mxGeometry width="50" height="50" relative="1" as="geometry">
            <mxPoint x="-377.5" y="4042.0000000000005" as="sourcePoint" />
            <mxPoint x="-604.5" y="4042.0000000000005" as="targetPoint" />
          </mxGeometry>
        </mxCell>
        <mxCell id="vkENzP75K5TKaXmKiikp-235" value="Открыть&lt;div&gt;домашнее задание&lt;/div&gt;" style="text;html=1;align=center;verticalAlign=middle;resizable=0;points=[];autosize=1;strokeColor=none;fillColor=none;" parent="1" vertex="1">
          <mxGeometry x="-554.5" y="4065.0000000000005" width="130" height="40" as="geometry" />
        </mxCell>
        <mxCell id="vkENzP75K5TKaXmKiikp-236" value="" style="edgeStyle=none;orthogonalLoop=1;jettySize=auto;html=1;rounded=0;exitX=1.176;exitY=0.901;exitDx=0;exitDy=0;exitPerimeter=0;entryX=0;entryY=0.891;entryDx=0;entryDy=0;entryPerimeter=0;" parent="1" edge="1">
          <mxGeometry width="100" relative="1" as="geometry">
            <mxPoint x="-606.5" y="4101" as="sourcePoint" />
            <mxPoint x="-377" y="4100" as="targetPoint" />
            <Array as="points" />
          </mxGeometry>
        </mxCell>
        <mxCell id="vkENzP75K5TKaXmKiikp-237" value="Отобразить информацию о&lt;div&gt;домашнем задании&lt;/div&gt;" style="text;html=1;align=center;verticalAlign=middle;resizable=0;points=[];autosize=1;strokeColor=none;fillColor=none;" parent="1" vertex="1">
          <mxGeometry x="-578.5" y="4140" width="180" height="40" as="geometry" />
        </mxCell>
        <mxCell id="vkENzP75K5TKaXmKiikp-238" value="" style="endArrow=classic;html=1;rounded=0;exitX=-0.3;exitY=0.8;exitDx=0;exitDy=0;exitPerimeter=0;dashed=1;" parent="1" edge="1">
          <mxGeometry width="50" height="50" relative="1" as="geometry">
            <mxPoint x="-381" y="4180" as="sourcePoint" />
            <mxPoint x="-608" y="4180" as="targetPoint" />
          </mxGeometry>
        </mxCell>
        <mxCell id="vkENzP75K5TKaXmKiikp-239" value="" style="group" parent="1" vertex="1" connectable="0">
          <mxGeometry x="-317" y="4080.0000000000005" width="195" height="40" as="geometry" />
        </mxCell>
        <mxCell id="vkENzP75K5TKaXmKiikp-240" value="Запросить информацию&lt;div&gt;о домашнем задании&lt;/div&gt;" style="text;html=1;align=center;verticalAlign=middle;resizable=0;points=[];autosize=1;strokeColor=none;fillColor=none;" parent="vkENzP75K5TKaXmKiikp-239" vertex="1">
          <mxGeometry x="-15" width="160" height="40" as="geometry" />
        </mxCell>
        <mxCell id="vkENzP75K5TKaXmKiikp-241" value="" style="endArrow=classic;html=1;rounded=0;exitX=1;exitY=0.25;exitDx=0;exitDy=0;entryX=0;entryY=0.25;entryDx=0;entryDy=0;" parent="1" edge="1">
          <mxGeometry width="50" height="50" relative="1" as="geometry">
            <mxPoint x="-365" y="4120" as="sourcePoint" />
            <mxPoint x="-136.5" y="4120" as="targetPoint" />
          </mxGeometry>
        </mxCell>
        <mxCell id="vkENzP75K5TKaXmKiikp-242" value="Вернуть информацию&lt;div&gt;о домашнем задании&lt;/div&gt;" style="text;html=1;align=center;verticalAlign=middle;resizable=0;points=[];autosize=1;strokeColor=none;fillColor=none;" parent="1" vertex="1">
          <mxGeometry x="-332" y="4130" width="150" height="40" as="geometry" />
        </mxCell>
        <mxCell id="vkENzP75K5TKaXmKiikp-243" value="" style="endArrow=classic;html=1;rounded=0;exitX=-0.367;exitY=0.668;exitDx=0;exitDy=0;exitPerimeter=0;entryX=1.167;entryY=0.669;entryDx=0;entryDy=0;entryPerimeter=0;dashed=1;" parent="1" edge="1">
          <mxGeometry width="50" height="50" relative="1" as="geometry">
            <mxPoint x="-140.5" y="4170" as="sourcePoint" />
            <mxPoint x="-364.5" y="4171" as="targetPoint" />
          </mxGeometry>
        </mxCell>
      </root>
    </mxGraphModel>
  </diagram>
</mxfile>
